<?xml version="1.0" standalone="no"?>
<!DOCTYPE svg PUBLIC "-//W3C//DTD SVG 1.1//EN" "http://www.w3.org/Graphics/SVG/1.1/DTD/svg11.dtd" >
<svg xmlns="http://www.w3.org/2000/svg">
<metadata>Generated by IcoMoon</metadata>
<defs>
<font id="icomoon" horiz-adv-x="1024">
<font-face units-per-em="1024" ascent="960" descent="-64" />
<missing-glyph horiz-adv-x="1024" />
<glyph unicode="&#x20;" horiz-adv-x="512" d="" />
<glyph unicode="&#xe900;" horiz-adv-x="1113" d="M347.961-41.134c-214.742 72.575-347.961 260.474-347.961 489.134 0 147.138 46.726 260.474 149.126 362.874 109.359 109.359 218.718 149.126 407.612 149.126 175.969 0 282.346-34.796 388.722-127.254 111.348-98.423 168.016-227.666 168.016-383.751 0-154.097-42.75-259.48-148.132-364.862-115.324-116.318-205.794-148.132-412.583-148.132-118.307 0-150.12 3.977-204.8 22.866z" />
<glyph unicode="&#xe901;" horiz-adv-x="1113" d="M347.961-41.134c-214.742 72.575-347.961 260.474-347.961 489.134 0 147.138 46.726 260.474 149.126 362.874 109.359 109.359 218.718 149.126 407.612 149.126 175.969 0 282.346-34.796 388.722-127.254 111.348-98.423 168.016-227.666 168.016-383.751 0-154.097-42.75-259.48-148.132-364.862-115.324-116.318-205.794-148.132-412.583-148.132-118.307 0-150.12 3.977-204.8 22.866zM467.262 39.394c0 11.93 29.825 14.913 159.068 17.895 157.080 2.983 159.068 2.983 185.911 29.825 37.779 37.779 36.784 91.464-0.994 123.278-23.86 21.872-36.784 23.86-120.295 23.86-85.499 0-94.447 1.988-105.383 20.878-6.959 13.918-6.959 23.86-0.994 27.837 9.942 6.959 0.994 177.957-11.93 197.841-3.977 6.959-4.971 11.93-1.988 11.93 4.971 0 236.614-132.225 286.322-162.050 17.895-11.93 47.72 5.965 47.72 26.843-0.994 5.965-50.703 50.703-111.348 99.417l-110.353 89.476-42.75-15.907-42.75-14.913-2.983 25.849c-2.983 21.872-7.953 25.849-37.779 25.849-26.843 0-36.784-4.971-44.738-22.866-4.971-11.93-13.918-21.872-19.883-21.872-4.971 0-58.656-28.831-119.301-64.621-59.65-35.79-121.289-70.586-137.196-76.551-28.831-12.924-31.814-19.883-16.901-47.72 8.948-16.901 16.901-14.913 121.289 24.854 174.975 65.616 167.021 61.639 167.021 88.482 0 12.924 5.965 27.837 12.924 33.802 8.948 7.953 10.936-10.936 8.948-90.47-3.977-163.045 22.866-195.852 164.039-195.852 60.645 0 85.499-3.977 96.435-15.907 18.889-17.895 19.883-27.837 5.965-54.68-9.942-17.895-22.866-18.889-168.016-18.889-149.126 0-158.074 0.994-163.045 19.883-3.977 14.913-13.918 19.883-35.79 19.883-16.901 0-30.819-3.977-30.819-8.948s-9.942-10.936-21.872-12.924c-29.825-3.977-33.802-25.849-5.965-29.825s26.843-20.878-1.988-27.837c-51.697-11.93-10.936-35.79 67.604-38.773 20.878-0.994 31.814 3.977 31.814 12.924zM894.757 502.68c0 70.586-30.819 178.951-51.697 178.951-5.965 0-6.959-6.959-1.988-17.895 10.936-21.872 11.93-180.94 0.994-202.812-5.965-11.93-2.983-17.895 9.942-20.878 41.755-10.936 42.75-8.948 42.75 62.633zM825.165 551.394c0 57.662-23.86 143.161-45.732 161.056-14.913 11.93-15.907 10.936-7.953-10.936 4.971-13.918 8.948-63.627 7.953-111.348-0.994-71.581 1.988-87.487 14.913-90.47 25.849-5.965 30.819 1.988 30.819 51.697zM586.563 753.212v167.021h-27.837c-28.831 0-28.831 0-46.726-107.371-29.825-172.986-29.825-174.975-2.983-202.812 12.924-12.924 34.796-23.86 50.703-23.86l26.843-0.994v168.016zM334.043 660.753c24.854 21.872 63.627 44.738 86.493 52.691 30.819 8.948 42.75 18.889 44.738 34.796 5.965 38.773-36.784 27.837-109.359-28.831-31.814-24.854-85.499-97.429-71.581-97.429 2.983 0 25.849 17.895 49.709 38.773zM410.594 791.984c22.866 9.942 49.709 18.889 59.65 18.889 17.895 0 20.878 7.953 10.936 33.802-8.948 22.866-33.802 19.883-84.505-12.924-46.726-28.831-118.307-108.365-118.307-130.237 0-6.959 20.878 5.965 45.732 28.831 24.854 23.86 63.627 50.703 86.493 61.639z" />
<glyph unicode="&#xe902;" horiz-adv-x="1153" d="M387.728-41.134c-214.742 72.575-347.961 260.474-347.961 489.134 0 147.138 46.726 260.474 149.126 362.874 109.359 109.359 218.718 149.126 407.612 149.126 175.969 0 282.346-34.796 388.722-127.254 111.348-98.423 168.016-227.666 168.016-383.751 0-154.097-42.75-259.48-148.132-364.862-115.324-116.318-205.794-148.132-412.583-148.132-118.307 0-150.12 3.977-204.8 22.866z" />
<glyph unicode="&#xe903;" horiz-adv-x="1153" d="M387.728-41.134c-214.742 72.575-347.961 260.474-347.961 489.134 0 147.138 46.726 260.474 149.126 362.874 109.359 109.359 218.718 149.126 407.612 149.126 175.969 0 282.346-34.796 388.722-127.254 111.348-98.423 168.016-227.666 168.016-383.751 0-154.097-42.75-259.48-148.132-364.862-115.324-116.318-205.794-148.132-412.583-148.132-118.307 0-150.12 3.977-204.8 22.866zM854.99 60.272c0 8.948-8.948 14.913-23.86 14.913-12.924 0-30.819 2.983-39.767 5.965-11.93 3.977-15.907 0-15.907-14.913 0-17.895 5.965-20.878 39.767-20.878 28.831 0 39.767 3.977 39.767 14.913zM972.303 88.109c3.977 19.883-12.924 20.878-56.668 5.965-28.831-9.942-38.773-26.843-24.854-41.755 10.936-9.942 78.54 19.883 81.522 35.79zM745.631 70.214c0 15.907-65.616 47.72-80.528 38.773-15.907-9.942-9.942-22.866 18.889-37.779 34.796-19.883 61.639-19.883 61.639-0.994zM635.278 127.876c0 6.959-15.907 24.854-34.796 39.767-29.825 25.849-34.796 26.843-40.761 10.936-3.977-11.93 2.983-25.849 25.849-45.732 30.819-27.837 51.697-29.825 49.709-4.971zM525.918 259.107c-24.854 45.732-32.808 52.691-43.744 34.796-9.942-16.901 44.738-103.394 57.662-90.47 6.959 6.959 2.983 23.86-13.918 55.674zM479.192 403.262c-8.948 48.715-7.953 72.575 2.983 116.318 13.918 53.685 12.924 72.575-4.971 72.575-10.936 0-32.808-95.441-24.854-109.359 3.977-5.965-6.959-9.942-28.831-9.942-28.831 0-35.79-3.977-35.79-19.883 0-14.913 6.959-19.883 28.831-19.883 26.843 0 28.831-2.983 35.79-47.72 7.953-55.674 13.918-66.61 26.843-53.685 6.959 6.959 6.959 30.819 0 71.581zM209.771 433.087c18.889 0 28.831 4.971 28.831 14.913 0 8.948-8.948 14.913-24.854 14.913-16.901 0-27.837 6.959-32.808 19.883-6.959 18.889-7.953 18.889-44.738-4.971-19.883-13.918-36.784-27.837-36.784-29.825 0-2.983 16.901-14.913 37.779-28.831 34.796-21.872 36.784-21.872 39.767-4.971 1.988 13.918 11.93 18.889 32.808 18.889zM355.915 449.988c-1.988 12.924-14.913 18.889-45.732 20.878-36.784 2.983-41.755 0.994-41.755-16.901s5.965-20.878 45.732-20.878c37.779 0 44.738 2.983 41.755 16.901zM586.563 453.965c0 17.895-4.971 19.883-41.755 16.901-30.819-1.988-43.744-7.953-45.732-20.878-2.983-13.918 3.977-16.901 41.755-16.901 39.767 0 45.732 2.983 45.732 20.878zM705.864 452.971c0 16.901-6.959 19.883-44.738 19.883s-44.738-2.983-44.738-19.883c0-16.901 6.959-19.883 44.738-19.883s44.738 2.983 44.738 19.883zM820.194 452.971c0 9.942-12.924 15.907-41.755 17.895-37.779 2.983-42.75 0.994-42.75-17.895s4.971-20.878 42.75-17.895c28.831 1.988 41.755 7.953 41.755 17.895zM556.738 701.515c0 26.843-21.872 13.918-45.732-25.849-21.872-36.784-23.86-47.72-12.924-53.685 8.948-5.965 19.883 2.983 35.79 31.814 12.924 21.872 22.866 43.744 22.866 47.72zM618.377 749.235c25.849 19.883 32.808 31.814 27.837 45.732-5.965 17.895-9.942 15.907-44.738-15.907-21.872-19.883-34.796-39.767-30.819-45.732 8.948-15.907 7.953-15.907 47.72 15.907zM984.233 800.932c0 12.924-11.93 24.854-35.79 34.796-44.738 18.889-43.744 18.889-43.744-2.983 0-10.936 13.918-24.854 32.808-34.796 41.755-20.878 46.726-20.878 46.726 2.983zM742.649 811.868c14.913 4.971 20.878 13.918 16.901 23.86-6.959 17.895-11.93 17.895-52.691 3.977-19.883-6.959-30.819-17.895-30.819-30.819 0-19.883 5.965-19.883 66.61 2.983zM872.885 837.717c-1.988 12.924-14.913 18.889-45.732 20.878-36.784 2.983-41.755 0.994-41.755-16.901s5.965-20.878 45.732-20.878c37.779 0 44.738 2.983 41.755 16.901z" />
<glyph unicode="&#xe904;" horiz-adv-x="1213" d="M367.845-41.134c-214.742 72.575-347.961 260.474-347.961 489.134 0 147.138 46.726 260.474 149.126 362.874 109.359 109.359 218.718 149.126 407.612 149.126 175.969 0 282.346-34.796 388.722-127.254 111.348-98.423 168.016-227.666 168.016-383.751 0-154.097-42.75-259.48-148.132-364.862-115.324-116.318-205.794-148.132-412.583-148.132-118.307 0-150.12 3.977-204.8 22.866z" />
<glyph unicode="&#xe905;" horiz-adv-x="1213" d="M367.845-41.134c-214.742 72.575-347.961 260.474-347.961 489.134 0 147.138 46.726 260.474 149.126 362.874 109.359 109.359 218.718 149.126 407.612 149.126 175.969 0 282.346-34.796 388.722-127.254 111.348-98.423 168.016-227.666 168.016-383.751 0-154.097-42.75-259.48-148.132-364.862-115.324-116.318-205.794-148.132-412.583-148.132-118.307 0-150.12 3.977-204.8 22.866zM609.429 249.165c-82.517 65.616-79.534 287.317 3.977 326.089 22.866 9.942 30.819 26.843 12.924 26.843-21.872 0-79.534-63.627-95.441-104.388-32.808-87.487-2.983-216.73 59.65-254.509 44.738-26.843 56.668-22.866 18.889 5.965zM925.577 245.188c45.732 32.808 68.598 87.487 68.598 165.033 0 83.511-25.849 143.161-71.581 171.992-46.726 27.837-58.656 23.86-20.878-7.953 43.744-35.79 62.633-87.487 62.633-166.027s-15.907-121.289-58.656-157.080c-37.779-31.814-21.872-35.79 19.883-5.965zM238.602 328.699c-9.942 11.93-8.948 31.814 4.971 102.4 19.883 93.452 36.784 129.243 34.796 71.581 0-18.889 2.983-61.639 6.959-94.447 11.93-88.482 27.837-83.511 92.458 28.831 28.831 52.691 55.674 93.452 57.662 90.47 5.965-5.965-38.773-187.899-49.709-201.817-7.953-8.948 0-11.93 35.79-11.93 42.75 0 46.726 1.988 40.761 19.883-6.959 20.878 28.831 198.835 46.726 230.649 7.953 15.907 2.983 17.895-34.796 17.895h-43.744l-43.744-78.54c-23.86-43.744-46.726-76.551-50.703-73.569-4.971 1.988-7.953 23.86-7.953 46.726 0 23.86-2.983 57.662-5.965 74.563-5.965 28.831-8.948 30.819-48.715 30.819-38.773 0-41.755-1.988-37.779-23.86 5.965-28.831-33.802-211.759-47.72-219.713-19.883-12.924-6.959-24.854 26.843-24.854 30.819 0 34.796 1.988 23.86 14.913zM725.748 328.699c11.93 13.918 14.913 13.918 29.825 0 47.72-43.744 139.184 8.948 139.184 79.534 0 40.761-21.872 89.476-43.744 97.429-18.889 7.953-26.843-4.971-14.913-22.866 24.854-40.761-9.942-168.016-43.744-156.085-12.924 3.977-15.907 56.668-3.977 98.423 6.959 25.849 4.971 27.837-21.872 27.837-25.849 0-28.831-3.977-34.796-44.738-7.953-48.715-35.79-91.464-53.685-80.528-21.872 12.924-13.918 89.476 12.924 130.237 33.802 48.715 27.837 60.645-15.907 30.819-36.784-25.849-68.598-77.546-68.598-114.33 0-49.709 88.482-83.511 119.301-45.732z" />
<glyph unicode="&#xe906;" horiz-adv-x="1213" d="M367.845-41.134c-214.742 72.575-347.961 260.474-347.961 489.134 0 147.138 46.726 260.474 149.126 362.874 109.359 109.359 218.718 149.126 407.612 149.126 175.969 0 282.346-34.796 388.722-127.254 111.348-98.423 168.016-227.666 168.016-383.751 0-154.097-42.75-259.48-148.132-364.862-115.324-116.318-205.794-148.132-412.583-148.132-118.307 0-150.12 3.977-204.8 22.866zM612.412 256.124c-40.761 33.802-55.674 76.551-55.674 162.050 0 65.616 23.86 126.26 59.65 151.115 26.843 18.889 25.849 35.79-1.988 26.843-61.639-17.895-97.429-85.499-97.429-181.934 0-37.779 4.971-81.522 10.936-97.429 18.889-50.703 87.487-109.359 111.348-95.441 4.971 2.983-6.959 17.895-26.843 34.796zM949.437 257.118c79.534 79.534 71.581 245.561-13.918 318.136-30.819 25.849-60.645 34.796-60.645 18.889 0-3.977 14.913-18.889 33.802-33.802 53.685-42.75 69.592-136.202 39.767-235.619-10.936-38.773-22.866-56.668-44.738-68.598-33.802-19.883-36.784-31.814-7.953-31.814 11.93 0 35.79 14.913 53.685 32.808zM242.579 335.658c-6.959 22.866 14.913 137.196 25.849 137.196 3.977 0 10.936-27.837 13.918-61.639 3.977-33.802 8.948-64.621 11.93-68.598 10.936-18.889 42.75 7.953 72.575 60.645 30.819 57.662 50.703 80.528 50.703 60.645 0-31.814-24.854-118.307-37.779-133.219-7.953-8.948-12.924-16.901-10.936-16.901 34.796-4.971 108.365-3.977 108.365 0 0 2.983-3.977 9.942-8.948 15.907-9.942 9.942 27.837 192.87 47.72 229.654 15.907 31.814 14.913 32.808-36.784 32.808h-47.72l-32.808-62.633c-51.697-96.435-57.662-99.417-65.616-30.819-2.983 32.808-6.959 65.616-7.953 73.569-1.988 15.907-65.616 25.849-94.447 14.913-13.918-4.971-13.918-7.953-2.983-14.913 11.93-6.959 10.936-25.849-8.948-116.318-12.924-58.656-28.831-114.33-36.784-123.278-17.895-20.878-9.942-25.849 31.814-20.878 29.825 3.977 34.796 6.959 28.831 23.86zM740.66 314.781c10.936 0 35.79-2.983 55.674-6.959 30.819-4.971 40.761-1.988 69.592 23.86 29.825 26.843 33.802 35.79 33.802 80.528 0 40.761-4.971 54.68-25.849 76.551-33.802 32.808-48.715 24.854-38.773-19.883 7.953-33.802 0-101.406-13.918-123.278-3.977-6.959-13.918-11.93-22.866-11.93-12.924 0-14.913 8.948-8.948 59.65l6.959 59.65h-28.831c-26.843 0-29.825-3.977-45.732-60.645-12.924-46.726-19.883-59.65-33.802-56.668-33.802 6.959-24.854 49.709 35.79 169.010 7.953 16.901-22.866 6.959-54.68-17.895-62.633-47.72-78.54-110.353-41.755-158.074 18.889-22.866 26.843-25.849 57.662-20.878 19.883 3.977 44.738 6.959 55.674 6.959z" />
<glyph unicode="&#xe907;" horiz-adv-x="1235" d="M401.944-3.708c-206.714 69.862-334.953 250.736-334.953 470.849 0 141.637 44.979 250.736 143.551 349.308 105.271 105.271 210.542 143.551 392.374 143.551 169.391 0 271.791-33.495 374.191-122.497 107.185-94.744 161.735-219.155 161.735-369.406 0-148.336-41.151-249.779-142.594-351.222-111.013-111.97-198.101-142.594-397.159-142.594-113.884 0-144.508 3.828-197.144 22.011z" />
<glyph unicode="&#xe908;" horiz-adv-x="1235" d="M401.944-3.708c-206.714 69.862-334.953 250.736-334.953 470.849 0 141.637 44.979 250.736 143.551 349.308 105.271 105.271 210.542 143.551 392.374 143.551 169.391 0 271.791-33.495 374.191-122.497 107.185-94.744 161.735-219.155 161.735-369.406 0-148.336-41.151-249.779-142.594-351.222-111.013-111.97-198.101-142.594-397.159-142.594-113.884 0-144.508 3.828-197.144 22.011zM689.047 210.662c0 4.785-12.441 15.312-27.753 23.925-47.85 26.796-70.819 86.131-71.776 179.918-0.957 101.443 13.398 143.551 64.12 186.617 43.065 37.323 27.753 45.936-22.011 11.484-99.529-66.991-110.056-284.232-17.226-366.535 36.366-33.495 74.647-50.721 74.647-35.409zM889.062 224.060c53.593 31.581 75.604 66.034 89.002 140.68 19.14 111.97-14.355 212.456-85.174 253.607-17.226 9.57-36.366 16.269-43.065 13.398-6.699-1.914 0.957-10.527 17.226-19.14 50.721-25.839 75.604-89.959 75.604-193.316 0-100.486-19.14-151.207-68.905-181.832-27.753-17.226-40.194-33.495-25.839-33.495 3.828 0 22.011 8.613 41.151 20.097zM821.114 331.245c35.409 32.538 27.753 66.034-23.925 110.056-39.237 33.495-44.022 41.151-35.409 56.464 17.226 27.753 44.022 26.796 67.948-2.871s25.839-29.667 35.409 7.656c5.742 23.925 2.871 26.796-27.753 32.538-39.237 6.699-90.916-0.957-112.927-18.183-8.613-5.742-18.183-22.968-22.011-38.28-4.785-22.011 0-31.581 39.237-67.948 35.409-31.581 44.022-45.936 39.237-60.292-9.57-30.624-42.108-34.452-69.862-6.699s-41.151 29.667-41.151 3.828c0-10.527 0-22.011 0-26.796-0.957-10.527 58.378-20.097 95.701-14.355 18.183 1.914 43.065 13.398 55.507 24.882zM311.028 358.998c0 27.753 3.828 62.206 7.656 76.561 6.699 24.882 10.527 26.796 54.55 26.796 43.065 0 47.85-1.914 47.85-22.011 0-33.495-20.097-95.701-36.366-114.841-13.398-15.312-10.527-16.269 45.936-16.269 51.679 0 58.378 1.914 47.85 14.355-8.613 10.527-5.742 38.28 14.355 131.11 13.398 64.12 30.624 124.411 38.28 133.024 25.839 27.753 17.226 37.323-35.409 37.323h-50.721v-55.507c-0.957-80.389-5.742-88.045-57.421-88.045-28.71 0-44.979 4.785-48.807 13.398-6.699 18.183 14.355 92.83 31.581 112.927 14.355 16.269 11.484 17.226-43.065 17.226-58.378 0-68.905-5.742-49.764-24.882 12.441-12.441-41.151-265.092-56.464-269.877-27.753-9.57-4.785-21.054 40.194-21.054h49.764v49.764z" />
<glyph unicode="&#xe909;" horiz-adv-x="1235" d="M401.944-3.708c-206.714 69.862-334.953 250.736-334.953 470.849 0 141.637 44.979 250.736 143.551 349.308 105.271 105.271 210.542 143.551 392.374 143.551 169.391 0 271.791-33.495 374.191-122.497 107.185-94.744 161.735-219.155 161.735-369.406 0-148.336-41.151-249.779-142.594-351.222-111.013-111.97-198.101-142.594-397.159-142.594-113.884 0-144.508 3.828-197.144 22.011zM689.047 208.748c0 2.871-16.269 20.097-37.323 38.28-24.882 22.968-40.194 46.893-47.85 76.561-28.71 112.927 0.957 244.994 62.206 283.275 22.011 13.398 30.624 23.925 24.882 29.667-12.441 12.441-44.979-4.785-86.131-43.065-84.217-80.389-75.604-285.189 15.312-360.793 30.624-24.882 68.905-38.28 68.905-23.925zM907.245 223.103c48.807 30.624 78.475 102.4 78.475 194.273 0 107.185-34.452 175.133-108.142 214.37-41.151 21.054-44.022 5.742-4.785-25.839 47.85-40.194 66.991-93.787 66.991-188.531 0-91.873-23.925-155.036-69.862-181.832-15.312-9.57-27.753-20.097-27.753-23.925 0-13.398 33.495-7.656 65.077 11.484zM325.383 313.062c0 7.656-4.785 15.312-11.484 17.226-7.656 2.871-7.656 18.183 2.871 61.249l13.398 56.464 46.893 2.871c45.936 2.871 45.936 2.871 40.194-22.968-3.828-13.398-9.57-38.28-12.441-55.507-2.871-16.269-12.441-35.409-21.054-42.108-13.398-10.527-13.398-13.398-0.957-21.054 16.269-10.527 98.572-13.398 108.142-3.828 2.871 2.871 0.957 13.398-4.785 22.968-13.398 21.054 23.925 209.585 50.721 256.479 9.57 17.226 18.183 33.495 18.183 36.366 0 1.914-27.753 3.828-62.206 3.828-61.249 0-71.776-5.742-51.679-25.839 7.656-7.656 7.656-23.925-0.957-59.335l-11.484-48.807h-87.088l6.699 39.237c3.828 22.011 12.441 48.807 20.097 59.335 22.011 31.581 18.183 35.409-43.065 35.409h-56.464l4.785-27.753c6.699-33.495-40.194-248.822-59.335-269.877s-12.441-23.925 53.593-26.796c44.979-1.914 57.421 0.957 57.421 12.441zM826.856 317.847c9.57 7.656 15.312 27.753 15.312 51.679 0 34.452-4.785 44.022-40.194 74.647s-39.237 36.366-27.753 50.721c17.226 21.054 34.452 19.14 50.721-5.742 19.14-28.71 47.85-17.226 44.022 18.183-2.871 25.839-5.742 26.796-61.249 29.667-46.893 1.914-62.206-0.957-83.26-17.226-39.237-31.581-34.452-66.991 13.398-108.142 28.71-24.882 38.28-39.237 35.409-56.464-4.785-33.495-48.807-35.409-63.163-2.871-13.398 29.667-36.366 31.581-44.022 1.914-8.613-33.495-6.699-43.065 11.484-48.807 30.624-8.613 133.981 0 149.293 12.441z" />
<glyph unicode="&#xe90a;" horiz-adv-x="1187" d="M401.944-3.708c-206.714 69.862-334.953 250.736-334.953 470.849 0 141.637 44.979 250.736 143.551 349.308 105.271 105.271 210.542 143.551 392.374 143.551 169.391 0 271.791-33.495 374.191-122.497 107.185-94.744 161.735-219.155 161.735-369.406 0-148.336-41.151-249.779-142.594-351.222-111.013-111.97-198.101-142.594-397.159-142.594-113.884 0-144.508 3.828-197.144 22.011z" />
<glyph unicode="&#xe90b;" horiz-adv-x="1187" d="M401.944-3.708c-206.714 69.862-334.953 250.736-334.953 470.849 0 141.637 44.979 250.736 143.551 349.308 105.271 105.271 210.542 143.551 392.374 143.551 169.391 0 271.791-33.495 374.191-122.497 107.185-94.744 161.735-219.155 161.735-369.406 0-148.336-41.151-249.779-142.594-351.222-111.013-111.97-198.101-142.594-397.159-142.594-113.884 0-144.508 3.828-197.144 22.011zM308.157 214.49c26.796 14.355 49.764 73.69 75.604 192.359 21.054 102.4 22.011 103.357 48.807 103.357 14.355 0 26.796 3.828 26.796 9.57 0 4.785-10.527 9.57-23.925 9.57-27.753 0-28.71 7.656-10.527 52.636 15.312 35.409 31.581 43.065 40.194 19.14 6.699-15.312 32.538-20.097 32.538-5.742 0 4.785 2.871 15.312 5.742 23.925 4.785 12.441-0.957 15.312-26.796 15.312-60.292 0-90.916-17.226-113.884-64.12-11.484-22.968-29.667-45.936-40.194-49.764-19.14-7.656-19.14-7.656 0.957-12.441 12.441-3.828 19.14-11.484 17.226-19.14-2.871-6.699-16.269-64.12-30.624-126.325-20.097-89.959-30.624-119.626-49.764-136.852l-23.925-22.011h25.839c14.355 0 34.452 4.785 45.936 10.527zM611.529 226.931c-47.85 32.538-69.862 82.303-73.69 170.348-4.785 98.572 14.355 158.864 67.948 203.843 44.022 38.28 28.71 44.979-23.925 9.57-54.55-37.323-79.432-98.572-79.432-196.187 0-65.077 4.785-89.002 21.054-121.54 23.925-44.979 74.647-89.002 103.357-89.002 14.355 0 10.527 5.742-15.312 22.968zM860.351 238.415c54.55 48.807 71.776 99.529 66.034 199.058-3.828 67.948-8.613 87.088-30.624 120.583-30.624 45.936-101.443 94.744-101.443 68.905 0-3.828 13.398-14.355 29.667-22.968 42.108-24.882 67.948-89.959 69.862-178.961 0.957-90.916-20.097-152.164-68.905-192.359-24.882-20.097-29.667-28.71-18.183-28.71 8.613 0 33.495 15.312 53.593 34.452zM767.521 325.503c32.538 32.538 25.839 68.905-21.054 109.099-44.979 38.28-48.807 68.905-10.527 73.69 15.312 2.871 28.71-3.828 39.237-18.183 19.14-24.882 38.28-17.226 38.28 16.269 0 22.011-2.871 22.968-62.206 22.968-49.764 0-66.034-3.828-81.346-19.14-33.495-33.495-23.925-75.604 24.882-106.228 24.882-15.312 32.538-25.839 32.538-47.85 0-21.054-5.742-28.71-23.925-33.495-25.839-6.699-52.636 9.57-52.636 30.624 0 13.398-28.71 19.14-28.71 5.742 0-3.828-2.871-16.269-5.742-27.753-6.699-24.882 10.527-31.581 80.389-27.753 36.366 1.914 56.464 8.613 70.819 22.011z" />
<glyph unicode="&#xe90c;" horiz-adv-x="1187" d="M401.944-3.708c-206.714 69.862-334.953 250.736-334.953 470.849 0 141.637 44.979 250.736 143.551 349.308 105.271 105.271 210.542 143.551 392.374 143.551 169.391 0 271.791-33.495 374.191-122.497 107.185-94.744 161.735-219.155 161.735-369.406 0-148.336-41.151-249.779-142.594-351.222-111.013-111.97-198.101-142.594-397.159-142.594-113.884 0-144.508 3.828-197.144 22.011zM325.383 223.103c25.839 25.839 34.452 49.764 58.378 156.95 26.796 121.54 25.839 120.583 52.636 120.583 16.269 0 22.968 4.785 22.968 19.14 0 12.441-6.699 19.14-19.14 19.14-22.011 0-23.925 8.613-7.656 43.065 11.484 24.882 22.011 30.624 31.581 14.355 2.871-5.742 14.355-9.57 24.882-9.57 13.398 0 18.183 6.699 18.183 23.925 0 22.011-2.871 23.925-46.893 23.925-55.507 0-89.959-22.968-107.185-71.776-7.656-21.054-19.14-33.495-29.667-33.495-9.57 0-17.226-6.699-17.226-14.355s6.699-14.355 14.355-14.355c18.183 0 19.14 6.699-13.398-133.024-20.097-88.045-32.538-123.454-47.85-135.895-10.527-8.613-20.097-22.011-20.097-27.753 0-18.183 62.206-4.785 86.131 19.14zM641.196 205.877c0 6.699-13.398 20.097-29.667 28.71-93.787 53.593-91.873 318.684 1.914 367.492 36.366 18.183 36.366 36.366 1.914 27.753-36.366-8.613-77.518-48.807-99.529-97.615-24.882-54.55-24.882-174.176 0-227.768 28.71-63.163 125.368-138.766 125.368-98.572zM845.996 216.404c59.335 33.495 87.088 95.701 87.088 198.101 0 104.314-24.882 160.778-89.002 201.929-32.538 20.097-46.893 24.882-53.593 17.226-7.656-7.656-6.699-12.441 1.914-15.312 32.538-12.441 68.905-55.507 84.217-100.486 20.097-60.292 15.312-178.004-9.57-229.682-9.57-20.097-31.581-44.979-49.764-56.464-18.183-10.527-30.624-23.925-26.796-28.71 7.656-12.441 13.398-10.527 55.507 13.398zM775.178 318.804c32.538 32.538 24.882 73.69-20.097 114.841-43.065 39.237-46.893 69.862-10.527 74.647 16.269 2.871 23.925-1.914 27.753-16.269 7.656-28.71 39.237-25.839 46.893 3.828 8.613 32.538 2.871 36.366-61.249 41.151-69.862 4.785-107.185-19.14-107.185-69.862 0-26.796 7.656-38.28 38.28-64.12 26.796-21.054 38.28-37.323 36.366-50.721-3.828-28.71-44.979-31.581-65.077-3.828-20.097 25.839-47.85 18.183-47.85-13.398 0-32.538 5.742-35.409 78.475-35.409 52.636 0 68.905 3.828 84.217 19.14z" />
<glyph unicode="&#xe90d;" horiz-adv-x="1113" d="M347.961-41.134c-214.742 72.575-347.961 260.474-347.961 489.134 0 147.138 46.726 260.474 149.126 362.874 109.359 109.359 218.718 149.126 407.612 149.126 175.969 0 282.346-34.796 388.722-127.254 111.348-98.423 168.016-227.666 168.016-383.751 0-154.097-42.75-259.48-148.132-364.862-115.324-116.318-205.794-148.132-412.583-148.132-118.307 0-150.12 3.977-204.8 22.866z" />
<glyph unicode="&#xe90e;" horiz-adv-x="1113" d="M347.961-41.134c-214.742 72.575-347.961 260.474-347.961 489.134 0 147.138 46.726 260.474 149.126 362.874 109.359 109.359 218.718 149.126 407.612 149.126 175.969 0 282.346-34.796 388.722-127.254 111.348-98.423 168.016-227.666 168.016-383.751 0-154.097-42.75-259.48-148.132-364.862-115.324-116.318-205.794-148.132-412.583-148.132-118.307 0-150.12 3.977-204.8 22.866zM795.34 278.99l-68.598 143.161 86.493 2.983c121.289 3.977 110.353 21.872-15.907 25.849-55.674 0.994-100.412 5.965-98.423 9.942 2.983 3.977-4.971 28.831-17.895 56.668l-21.872 49.709-25.849-50.703c-13.918-27.837-22.866-53.685-19.883-57.662 3.977-2.983-18.889-5.965-49.709-5.965h-56.668l24.854 54.68c31.814 73.569 67.604 117.313 122.283 154.097l44.738 29.825h-32.808c-56.668 0-110.353-21.872-161.056-67.604-49.709-45.732-102.4-133.219-93.452-156.085 2.983-9.942-10.936-13.918-54.68-16.901l-58.656-2.983v86.493c0 75.557 1.988 87.487 16.901 87.487 11.93 0 5.965 10.936-21.872 39.767l-38.773 39.767-38.773-36.784c-27.837-27.837-33.802-38.773-22.866-40.761 12.924-2.983 15.907-19.883 15.907-89.476v-86.493l-44.738 2.983c-36.784 2.983-44.738 0.994-44.738-12.924s7.953-15.907 44.738-12.924l43.744 2.983 5.965-208.777h79.534l5.965 208.777 46.726-2.983 47.72-3.977-7.953-67.604h111.348v34.796c0 34.796 0 34.796 44.738 34.796 24.854 0 44.738-1.988 44.738-3.977s-28.831-63.627-64.621-137.196c-35.79-74.563-64.621-137.196-64.621-141.173 0-2.983 91.464-5.965 202.812-5.965h203.806l-68.598 144.155zM1033.942 457.942c11.93 58.656 13.918 84.505 5.965 84.505-5.965 0-30.819 22.866-54.68 50.703-51.697 60.645-125.266 98.423-189.887 98.423h-44.738l29.825-15.907c59.65-30.819 137.196-118.307 116.318-132.225-4.971-2.983 17.895-44.738 51.697-91.464 32.808-47.72 62.633-84.505 64.621-82.517s10.936 41.755 20.878 88.482z" />
<glyph unicode="&#xe90f;" horiz-adv-x="1129" d="M393.331-29.548c-133.024 44.979-227.768 128.239-292.845 256.479-133.024 266.049 0.957 592.389 287.103 696.703 71.776 25.839 266.049 35.409 348.351 17.226 150.25-32.538 280.404-133.981 351.222-274.662l37.323-72.733v-298.587l-38.28-71.776c-46.893-88.045-141.637-185.66-216.284-222.983-87.088-43.065-144.508-54.55-281.361-54.55-107.185 0-133.981 3.828-195.23 24.882z" />
<glyph unicode="&#xe910;" horiz-adv-x="1129" d="M393.331-29.548c-133.024 44.979-227.768 128.239-292.845 256.479-133.024 266.049 0.957 592.389 287.103 696.703 71.776 25.839 266.049 35.409 348.351 17.226 150.25-32.538 280.404-133.981 351.222-274.662l37.323-72.733v-298.587l-38.28-71.776c-46.893-88.045-141.637-185.66-216.284-222.983-87.088-43.065-144.508-54.55-281.361-54.55-107.185 0-133.981 3.828-195.23 24.882zM629.712 21.174c68.905 18.183 119.626 26.796 140.68 22.968 41.151-6.699 63.163 1.914 56.464 20.097-3.828 9.57-21.054 15.312-48.807 17.226-31.581 1.914-47.85 8.613-56.464 22.968-12.441 18.183-4.785 26.796 125.368 142.594 76.561 67.948 138.766 125.368 138.766 129.196 0 2.871-4.785 10.527-11.484 17.226-8.613 8.613-8.613 14.355 0 22.968 6.699 6.699 11.484 14.355 11.484 18.183 0 5.742-148.336 140.68-253.607 231.596l-28.71 23.925 26.796 27.753c32.538 34.452 32.538 38.28-2.871 45.936-29.667 6.699-40.194 23.925-14.355 23.925 7.656 0 14.355 8.613 14.355 19.14s-3.828 19.14-8.613 19.14c-17.226 0-63.163-20.097-68.905-30.624-3.828-5.742-31.581-1.914-80.389 11.484-40.194 11.484-75.604 19.14-77.518 16.269-1.914-1.914 6.699-29.667 20.097-62.206 26.796-65.077 27.753-72.733 15.312-64.12-5.742 2.871-21.054-14.355-35.409-39.237-21.054-35.409-22.968-45.936-12.441-51.679 8.613-5.742 19.14 2.871 35.409 31.581 12.441 22.011 23.925 41.151 25.839 43.065 0.957 0.957 12.441-22.011 23.925-52.636 12.441-30.624 23.925-57.421 26.796-60.292 1.914-2.871 15.312 9.57 30.624 26.796l26.796 31.581 120.583-107.185c66.034-59.335 120.583-110.056 120.583-112.927 0-5.742-190.445-177.047-222.983-200.972-15.312-11.484-21.054-9.57-45.936 14.355-23.925 22.968-29.667 24.882-37.323 13.398-4.785-7.656-9.57-19.14-9.57-25.839s-8.613-16.269-19.14-22.011c-13.398-7.656-18.183-16.269-14.355-28.71 2.871-9.57-7.656-49.764-23.925-89.959-33.495-86.131-33.495-85.174-11.484-78.475 8.613 2.871 65.077 17.226 124.411 33.495zM904.374 64.239c18.183 7.656 33.495 21.054 33.495 28.71 0 18.183-1.914 18.183-48.807 3.828-34.452-9.57-45.936-24.882-30.624-39.237 8.613-8.613 7.656-8.613 45.936 6.699zM526.355 213.533c0 3.828-9.57 24.882-22.011 45.936-15.312 26.796-25.839 36.366-34.452 31.581-9.57-6.699-8.613-14.355 3.828-40.194 9.57-18.183 21.054-38.28 25.839-44.022 9.57-12.441 26.796-8.613 26.796 6.699zM461.279 395.364c-8.613 46.893-7.656 69.862 2.871 111.97 13.398 51.679 12.441 69.862-4.785 69.862-9.57 0-32.538-91.873-24.882-103.357 2.871-5.742-9.57-12.441-27.753-15.312-42.108-8.613-45.936-34.452-5.742-34.452 25.839 0 27.753-2.871 34.452-45.936 7.656-53.593 13.398-64.12 25.839-51.679 6.699 6.699 6.699 29.667 0 68.905zM205.757 424.075c15.312 0 23.925 5.742 23.925 14.355 0 9.57-9.57 14.355-28.71 14.355-22.011 0-28.71 3.828-28.71 19.14 0 18.183-1.914 18.183-38.28-5.742-21.054-14.355-38.28-26.796-38.28-28.71s16.269-14.355 35.409-27.753c35.409-22.968 36.366-22.968 43.065-4.785 4.785 12.441 15.312 19.14 31.581 19.14zM344.523 438.43c0 10.527-11.484 14.355-43.065 14.355s-43.065-3.828-43.065-14.355c0-10.527 11.484-14.355 43.065-14.355s43.065 3.828 43.065 14.355zM564.636 444.172c0 17.226-4.785 19.14-40.194 16.269-29.667-1.914-42.108-7.656-44.022-20.097-2.871-13.398 3.828-16.269 40.194-16.269 38.28 0 44.022 2.871 44.022 20.097zM679.477 443.215c0 16.269-6.699 19.14-43.065 19.14s-43.065-2.871-43.065-19.14c0-16.269 6.699-19.14 43.065-19.14s43.065 2.871 43.065 19.14zM789.533 443.215c0 9.57-12.441 15.312-40.194 17.226-36.366 2.871-41.151 0.957-41.151-17.226s4.785-20.097 41.151-17.226c27.753 1.914 40.194 7.656 40.194 17.226zM947.439 783.91c0 7.656-15.312 21.054-33.495 28.71-42.108 17.226-43.065 17.226-43.065-4.785 0-11.484 10.527-22.011 26.796-27.753 37.323-14.355 49.764-13.398 49.764 3.828zM842.168 816.449c0 16.269-6.699 19.14-43.065 19.14-29.667 0-43.065-3.828-43.065-12.441 0-20.097 10.527-25.839 49.764-25.839 29.667 0 36.366 2.871 36.366 19.14z" />
<glyph unicode="&#xe911;" horiz-adv-x="1103" d="M380.062-53.169c-168.369 41.354-320 193.969-366.277 368.246-18.708 67.938-17.723 205.785 1.969 271.754 51.2 174.277 192.985 314.092 363.323 358.4 77.785 19.692 266.831 19.692 344.615 0 179.2-47.262 330.831-202.831 369.231-380.062 17.723-81.723 8.862-236.308-18.708-307.2-47.262-121.108-171.323-245.169-293.415-293.415-49.231-19.692-76.8-22.646-209.723-24.615-83.692-1.969-170.338 0.985-191.015 6.892z" />
<glyph unicode="&#xe912;" horiz-adv-x="1103" d="M380.062-53.169c-168.369 41.354-320 193.969-366.277 368.246-18.708 67.938-17.723 205.785 1.969 271.754 51.2 174.277 192.985 314.092 363.323 358.4 77.785 19.692 266.831 19.692 344.615 0 179.2-47.262 330.831-202.831 369.231-380.062 17.723-81.723 8.862-236.308-18.708-307.2-47.262-121.108-171.323-245.169-293.415-293.415-49.231-19.692-76.8-22.646-209.723-24.615-83.692-1.969-170.338 0.985-191.015 6.892zM395.815 326.892c-12.8 27.569 5.908 103.385 24.615 99.446 19.692-3.938 29.538-20.677 42.338-74.831l10.831-41.354h78.769c68.923 0 77.785 1.969 69.908 15.754-4.923 8.862-4.923 35.446 0.985 64l9.846 48.246h88.615l-6.892-42.338c-3.938-22.646-13.785-51.2-21.662-64-13.785-21.662-13.785-21.662 36.431-21.662 43.323 0 49.231 1.969 38.4 14.769-9.846 11.815-6.892 37.415 14.769 128 13.785 62.031 30.523 113.231 35.446 113.231s8.862 3.938 8.862 9.846c0 4.923-22.646 9.846-50.215 9.846-43.323 0-49.231-1.969-39.385-13.785 8.862-9.846 9.846-27.569 3.938-57.108-7.877-42.338-8.862-42.338-55.138-45.292l-46.277-2.954 5.908 32.492c3.938 17.723 12.8 42.338 19.692 54.154 19.692 31.508 18.708 32.492-31.508 32.492-40.369 0-44.308-1.969-38.4-19.692 6.892-20.677-29.538-196.923-47.262-230.4-8.862-18.708-9.846-18.708-22.646-0.985-7.877 9.846-13.785 27.569-13.785 39.385 0 10.831-6.892 29.538-14.769 41.354-13.785 19.692-12.8 22.646 14.769 39.385 31.508 18.708 43.323 44.308 37.415 82.708-3.938 29.538-50.215 47.262-128.985 47.262-53.169 0.985-57.108 0-51.2-18.708 7.877-24.615-30.523-202.831-50.215-234.338-13.785-21.662-13.785-21.662 35.446-21.662 44.308 0 49.231 1.969 41.354 16.738z" />
<glyph unicode="&#xe913;" horiz-adv-x="1103" d="M413.538 457.846c0 4.923 4.923 31.508 10.831 59.077 10.831 53.169 31.508 64 62.031 33.477 22.646-21.662 19.692-50.215-8.862-77.785-23.631-24.615-64-33.477-64-14.769z" />
<glyph unicode="&#xe914;" horiz-adv-x="1103" d="M380.062-53.169c-168.369 41.354-320 193.969-366.277 368.246-18.708 67.938-17.723 205.785 1.969 271.754 51.2 174.277 192.985 314.092 363.323 358.4 77.785 19.692 266.831 19.692 344.615 0 179.2-47.262 330.831-202.831 369.231-380.062 17.723-81.723 8.862-236.308-18.708-307.2-47.262-121.108-171.323-245.169-293.415-293.415-49.231-19.692-76.8-22.646-209.723-24.615-83.692-1.969-170.338 0.985-191.015 6.892zM404.677 323.938c-15.754 18.708-3.938 84.677 15.754 91.569 18.708 7.877 29.538-9.846 37.415-63.015l5.908-42.338h161.477l1.969 49.231c0.985 61.046 14.769 78.769 58.092 78.769 31.508 0 33.477-1.969 27.569-27.569-11.815-54.154-16.738-65.969-31.508-83.692-13.785-15.754-11.815-16.738 41.354-16.738 52.185 0 56.123 1.969 50.215 19.692-6.892 21.662 30.523 205.785 45.292 221.538 21.662 22.646 7.877 34.462-41.354 34.462-45.292 0-49.231-1.969-43.323-19.692 3.938-11.815 3.938-38.4 0-59.077-6.892-38.4-7.877-39.385-45.292-39.385-45.292 0-49.231 13.785-18.708 73.846 10.831 21.662 19.692 40.369 19.692 41.354 0 1.969-24.615 2.954-54.154 2.954h-53.169l4.923-28.554c5.908-28.554-20.677-177.231-37.415-211.692-11.815-22.646-20.677-12.8-36.431 41.354-11.815 41.354-10.831 43.323 17.723 69.908 39.385 37.415 41.354 79.754 4.923 108.308-21.662 16.738-40.369 20.677-103.385 20.677h-76.8l4.923-28.554c6.892-33.477-22.646-183.138-41.354-214.646-7.877-11.815-13.785-24.615-13.785-27.569s24.615-4.923 55.138-4.923c47.262 0 54.154 1.969 44.308 13.785z" />
<glyph unicode="&#xe915;" horiz-adv-x="1103" d="M427.323 499.2c7.877 49.231 16.738 60.062 41.354 55.138 12.8-1.969 19.692-12.8 21.662-35.446 3.938-39.385-11.815-61.046-45.292-61.046-22.646 0-23.631 1.969-17.723 41.354z" />
<glyph unicode="&#xe916;" horiz-adv-x="1103" d="M380.062-53.169c-168.369 41.354-320 193.969-366.277 368.246-18.708 67.938-17.723 205.785 1.969 271.754 51.2 174.277 192.985 314.092 363.323 358.4 77.785 19.692 266.831 19.692 344.615 0 179.2-47.262 330.831-202.831 369.231-380.062 17.723-81.723 8.862-236.308-18.708-307.2-47.262-121.108-171.323-245.169-293.415-293.415-49.231-19.692-76.8-22.646-209.723-24.615-83.692-1.969-170.338 0.985-191.015 6.892z" />
<glyph unicode="&#xe917;" horiz-adv-x="1103" d="M380.062-53.169c-168.369 41.354-320 193.969-366.277 368.246-18.708 67.938-17.723 205.785 1.969 271.754 51.2 174.277 192.985 314.092 363.323 358.4 77.785 19.692 266.831 19.692 344.615 0 179.2-47.262 330.831-202.831 369.231-380.062 17.723-81.723 8.862-236.308-18.708-307.2-47.262-121.108-171.323-245.169-293.415-293.415-49.231-19.692-76.8-22.646-209.723-24.615-83.692-1.969-170.338 0.985-191.015 6.892zM670.523 126.031c133.908 90.585 127.015 339.692-10.831 410.585-51.2 26.585-82.708 24.615-134.892-4.923-76.8-45.292-117.169-164.431-91.569-269.785 30.523-128.985 147.692-195.938 237.292-135.877zM288.492 282.585c12.8 173.292 76.8 339.692 169.354 439.138 89.6 96.492 128.985 100.431 212.677 19.692 78.769-76.8 147.692-215.631 170.338-345.6l6.892-36.431h-37.415l-37.415-0.985 165.415-159.508 70.892 77.785 71.877 77.785-38.4 2.954c-32.492 2.954-39.385 6.892-44.308 29.538-31.508 146.708-82.708 258.954-154.585 334.769-78.769 82.708-108.308 94.523-250.092 98.462-93.538 2.954-130.954 0-169.354-12.8-98.462-32.492-194.954-147.692-242.215-290.462-26.585-78.769-54.154-224.492-54.154-283.569v-31.508h154.585l5.908 80.738z" />
<glyph unicode="&#xe918;" horiz-adv-x="1113" d="M347.961-41.134c-214.742 72.575-347.961 260.474-347.961 489.134 0 147.138 46.726 260.474 149.126 362.874 109.359 109.359 218.718 149.126 407.612 149.126 175.969 0 282.346-34.796 388.722-127.254 111.348-98.423 168.016-227.666 168.016-383.751 0-154.097-42.75-259.48-148.132-364.862-115.324-116.318-205.794-148.132-412.583-148.132-118.307 0-150.12 3.977-204.8 22.866z" />
<glyph unicode="&#xe919;" horiz-adv-x="1113" d="M347.961-41.134c-214.742 72.575-347.961 260.474-347.961 489.134 0 147.138 46.726 260.474 149.126 362.874 109.359 109.359 218.718 149.126 407.612 149.126 175.969 0 282.346-34.796 388.722-127.254 111.348-98.423 168.016-227.666 168.016-383.751 0-154.097-42.75-259.48-148.132-364.862-115.324-116.318-205.794-148.132-412.583-148.132-118.307 0-150.12 3.977-204.8 22.866zM477.204 229.282c0 1.988-17.895 43.744-39.767 90.47-41.755 91.464-44.738 97.429-31.814 89.476 3.977-1.988 123.278 24.854 265.445 59.65s272.404 66.61 288.311 69.592c16.901 2.983 32.808 8.948 36.784 11.93 10.936 9.942-1.988 51.697-15.907 51.697-31.814 0.994-591.534-143.161-586.563-150.12 2.983-4.971 0.994-8.948-3.977-8.948s-20.878 27.837-34.796 61.639c-14.913 33.802-28.831 58.656-30.819 56.668-5.965-7.953-145.15-322.113-145.15-330.066 0-3.977 67.604-6.959 149.126-6.959 82.517 0 149.126 1.988 149.126 4.971zM883.821 240.217c30.819 21.872 51.697 74.563 44.738 112.342-17.895 89.476-117.313 109.359-158.074 30.819-27.837-54.68-11.93-118.307 35.79-145.15 31.814-17.895 49.709-16.901 77.546 1.988zM234.625 391.332c14.913 35.79 13.918 35.79-37.779 21.872-24.854-6.959-35.79-14.913-32.808-24.854 2.983-7.953 6.959-21.872 9.942-29.825 6.959-23.86 44.738-2.983 60.645 32.808zM824.171 598.12c31.814 40.761 23.86 90.47-18.889 113.336-15.907 8.948-24.854 5.965-44.738-13.918-13.918-13.918-24.854-35.79-24.854-48.715 0-27.837 34.796-76.551 54.68-76.551 6.959 0 22.866 11.93 33.802 25.849z" />
</font>
</defs>
</svg>
